<svg xmlns="http://www.w3.org/2000/svg" xmlns:xlink="http://www.w3.org/1999/xlink" viewBox="0 0 194.1 107.08">
  <defs>
    <linearGradient id="linear-gradient" x1="47.77" y1="29.82" x2="93.07" y2="29.82" gradientUnits="userSpaceOnUse">
      <stop offset="0" stop-color="#cb9920"/>
      <stop offset="0.51" stop-color="#ebcf75"/>
      <stop offset="1" stop-color="#cb9920"/>
    </linearGradient>
    <linearGradient id="linear-gradient-2" x1="47.77" y1="30.31" x2="93.07" y2="30.31" xlink:href="#linear-gradient"/>
  </defs>
  <g id="Layer_2" data-name="Layer 2">
    <g id="Banners">
      <g>
        <path d="M0,82.43H3.23c1.63,0,2.78.84,2.78,2.33a2.12,2.12,0,0,1-1.09,1.93v0a2.1,2.1,0,0,1,1.46,2.12c0,1.8-1.45,2.62-3.11,2.62H0Zm3.23,3.69A1.08,1.08,0,0,0,4.35,85,1,1,0,0,0,3.2,83.84H1.64v2.28Zm.16,3.93a1.31,1.31,0,1,0,0-2.61H1.64v2.61Z" fill="#ae9a64"/>
        <path d="M8.53,82.43h5.4v1.41H10.17v2.37h3v1.41h-3v2.43h4v1.41H8.53Z" fill="#ae9a64"/>
        <path d="M20.19,82.28a4.67,4.67,0,0,1,3.33,1.23l-.79,1.22a4,4,0,0,0-2.47-1,2.94,2.94,0,0,0-3,3.1,3,3,0,0,0,3,3.23A3.87,3.87,0,0,0,22.89,89l.87,1.18a4.87,4.87,0,0,1-3.55,1.46,4.67,4.67,0,0,1,0-9.33Z" fill="#ae9a64"/>
        <path d="M30.14,89.14H27l-.77,2.32H24.52l3.18-9h1.72l3.17,9H30.9ZM28.55,84s-.2.89-.38,1.39l-.8,2.42h2.36l-.8-2.42c-.16-.5-.35-1.39-.35-1.39Z" fill="#ae9a64"/>
        <path d="M33.92,82.43h1.64v5.79a1.79,1.79,0,0,0,2,1.89,1.81,1.81,0,0,0,2-1.91V82.43H41.2v5.79a3.34,3.34,0,0,1-3.64,3.39,3.34,3.34,0,0,1-3.64-3.39Z" fill="#ae9a64"/>
        <path d="M44,89.14a3.58,3.58,0,0,0,2.25,1A1.15,1.15,0,0,0,47.5,89c0-1.61-4.25-1.33-4.25-4.1a2.77,2.77,0,0,1,3-2.62,3.85,3.85,0,0,1,2.7,1l-.72,1.33a3.27,3.27,0,0,0-2-.79,1.22,1.22,0,0,0-1.36,1.08c0,1.6,4.24,1.21,4.24,4.1a2.69,2.69,0,0,1-3,2.64,4.35,4.35,0,0,1-3.11-1.23Z" fill="#ae9a64"/>
        <path d="M51.17,82.43h5.4v1.41H52.81v2.37h3v1.41h-3v2.43h4v1.41h-5.6Z" fill="#ae9a64"/>
        <path d="M66.8,89.14H63.64l-.77,2.32H61.18l3.18-9h1.72l3.17,9H67.56ZM65.21,84s-.2.89-.38,1.39L64,87.81H66.4l-.81-2.42c-.16-.5-.35-1.39-.35-1.39Z" fill="#ae9a64"/>
        <path d="M74.26,82.43H75.9v7.62h3.91v1.41H74.26Z" fill="#ae9a64"/>
        <path d="M81.5,82.43h5.4v1.41H83.14v2.37h3v1.41h-3v2.43h4v1.41H81.5Z" fill="#ae9a64"/>
        <path d="M93.18,82.28a5,5,0,0,1,3.36,1.14l-.82,1.22a3.88,3.88,0,0,0-2.4-.86,2.93,2.93,0,0,0-3.1,3.1,3,3,0,0,0,3,3.23,3.43,3.43,0,0,0,2.27-.94V88.11H94.12V86.7H97v4.76h-1.4V91c0-.19,0-.38,0-.38h0a3.82,3.82,0,0,1-2.62,1,4.44,4.44,0,0,1-4.42-4.68A4.55,4.55,0,0,1,93.18,82.28Z" fill="#ae9a64"/>
        <path d="M103.65,89.14h-3.16l-.76,2.32H98l3.17-9h1.72l3.18,9h-1.69ZM102.07,84s-.21.89-.39,1.39l-.8,2.42h2.37l-.8-2.42c-.17-.5-.36-1.39-.36-1.39Z" fill="#ae9a64"/>
        <path d="M111.61,82.28a4.67,4.67,0,0,1,3.33,1.23l-.79,1.22a4,4,0,0,0-2.46-1,2.94,2.94,0,0,0-3,3.1,3.05,3.05,0,0,0,3,3.23A3.91,3.91,0,0,0,114.32,89l.86,1.18a4.84,4.84,0,0,1-3.54,1.46,4.67,4.67,0,0,1,0-9.33Z" fill="#ae9a64"/>
        <path d="M119,87.68l-3-5.25h1.86l1.41,2.66c.29.56.53,1.22.54,1.21h0a12.42,12.42,0,0,1,.55-1.21l1.39-2.66h1.86l-3,5.25v3.78H119Z" fill="#ae9a64"/>
        <path d="M128.61,82.43h1.64v9h-1.64Z" fill="#ae9a64"/>
        <path d="M133.12,89.14a3.61,3.61,0,0,0,2.25,1c.69,0,1.31-.36,1.31-1.1,0-1.61-4.26-1.33-4.26-4.1a2.78,2.78,0,0,1,3-2.62,3.81,3.81,0,0,1,2.69,1l-.71,1.33a3.27,3.27,0,0,0-2-.79c-.77,0-1.36.45-1.36,1.08,0,1.6,4.24,1.21,4.24,4.1a2.69,2.69,0,0,1-3,2.64,4.39,4.39,0,0,1-3.12-1.23Z" fill="#ae9a64"/>
        <path d="M143.81,82.43h5.4v1.41h-3.76v2.37h3v1.41h-3v2.43h4v1.41h-5.61Z" fill="#ae9a64"/>
        <path d="M156,89.14h-3.17l-.76,2.32h-1.69l3.18-9h1.71l3.18,9h-1.69ZM154.39,84s-.2.89-.38,1.39l-.8,2.42h2.36l-.8-2.42c-.17-.5-.36-1.39-.36-1.39Z" fill="#ae9a64"/>
        <path d="M160,82.43h2.91a4.17,4.17,0,0,1,1.82.26,2.54,2.54,0,0,1,1.47,2.46,2.6,2.6,0,0,1-1.52,2.47v0a2.62,2.62,0,0,1,.3.45l1.86,3.37H165l-1.79-3.37h-1.58v3.37H160Zm3.11,4.23a1.31,1.31,0,0,0,1.43-1.42c0-.86-.37-1.4-1.66-1.4h-1.24v2.82Z" fill="#ae9a64"/>
        <path d="M168.72,82.43h1.63l3.42,5.21a12.21,12.21,0,0,1,.75,1.4h0s-.09-.86-.09-1.4V82.43h1.63v9h-1.63L171,86.26a14.21,14.21,0,0,1-.75-1.4h0s.08.86.08,1.4v5.2h-1.63Z" fill="#ae9a64"/>
        <path d="M178.75,82.43h5.4v1.41h-3.76v2.37h3v1.41h-3v2.43h4v1.41h-5.6Z" fill="#ae9a64"/>
        <path d="M186.42,82.43h3.08c2.78,0,4.6,1.65,4.6,4.5a4.24,4.24,0,0,1-4.6,4.53h-3.08Zm3,7.62a3.11,3.11,0,0,0,0-6.21h-1.35v6.21Z" fill="#ae9a64"/>
        <path d="M23.33,104.61a3.61,3.61,0,0,0,2.25,1c.68,0,1.31-.36,1.31-1.1,0-1.61-4.26-1.33-4.26-4.1a2.77,2.77,0,0,1,3-2.62,3.85,3.85,0,0,1,2.7,1l-.71,1.33a3.32,3.32,0,0,0-2-.79,1.22,1.22,0,0,0-1.36,1.08c0,1.6,4.25,1.21,4.25,4.1a2.7,2.7,0,0,1-3,2.64,4.35,4.35,0,0,1-3.11-1.23Zm11.7,0H31.87l-.76,2.32H29.42l3.17-9h1.72l3.18,9H35.8Zm-1.58-5.14s-.21.89-.39,1.39l-.8,2.42h2.37l-.8-2.42c-.17-.5-.36-1.39-.36-1.39ZM39,97.9H44.2v1.41H40.65v2.56h3v1.41h-3v3.65H39Zm7.11,0h5.4v1.41H47.76v2.37h3v1.41h-3v2.43h4v1.41H46.12Zm7.36,7.41h1.61v1.62H53.48Zm7.64-.7a3.61,3.61,0,0,0,2.25,1c.69,0,1.31-.36,1.31-1.1,0-1.61-4.26-1.33-4.26-4.1a2.78,2.78,0,0,1,3-2.62,3.81,3.81,0,0,1,2.69,1l-.71,1.33a3.32,3.32,0,0,0-2-.79,1.22,1.22,0,0,0-1.36,1.08c0,1.6,4.25,1.21,4.25,4.1a2.7,2.7,0,0,1-3,2.64,4.38,4.38,0,0,1-3.11-1.23Zm7.22-6.71h5.4v1.41H70v2.37h3v1.41H70v2.43h4v1.41H68.34ZM80,97.75A4.67,4.67,0,0,1,83.31,99l-.78,1.22a4,4,0,0,0-2.47-1,2.93,2.93,0,0,0-3,3.1,3,3,0,0,0,3,3.23,3.88,3.88,0,0,0,2.62-1.14l.87,1.18A4.87,4.87,0,0,1,80,107.08a4.67,4.67,0,0,1,0-9.33Zm5.34.15H87v5.79a2,2,0,0,0,4,0V97.9h1.64v5.79a3.65,3.65,0,0,1-7.29,0Zm9.83,0h2.91a4.17,4.17,0,0,1,1.82.26,2.54,2.54,0,0,1,1.47,2.46,2.6,2.6,0,0,1-1.52,2.47v0a2,2,0,0,1,.3.45l1.86,3.37h-1.83l-1.79-3.37H96.79v3.37H95.15Zm3.11,4.24a1.32,1.32,0,0,0,1.43-1.43c0-.86-.37-1.4-1.65-1.4H96.79v2.83Zm5.64-4.24h5.4v1.41h-3.76v2.37h3v1.41h-3v2.43h4v1.41h-5.6Zm7.36,7.41h1.61v1.62h-1.61Zm7.64-.7a3.61,3.61,0,0,0,2.25,1c.68,0,1.31-.36,1.31-1.1,0-1.61-4.26-1.33-4.26-4.1a2.77,2.77,0,0,1,3-2.62,3.85,3.85,0,0,1,2.7,1l-.71,1.33a3.32,3.32,0,0,0-2-.79,1.22,1.22,0,0,0-1.36,1.08c0,1.6,4.25,1.21,4.25,4.1a2.7,2.7,0,0,1-3,2.64,4.35,4.35,0,0,1-3.11-1.23ZM126,97.9h1.64v5.79a2,2,0,0,0,4,0V97.9h1.64v5.79a3.65,3.65,0,0,1-7.28,0Zm9.83,0h1.64l3.42,5.21a15.53,15.53,0,0,1,.75,1.4h0s-.09-.86-.09-1.4V97.9h1.63v9h-1.63l-3.42-5.2a14.21,14.21,0,0,1-.75-1.4h0s.09.86.09,1.4v5.2h-1.64Zm10,0h3.23c1.62,0,2.78.84,2.78,2.33a2.14,2.14,0,0,1-1.09,1.93v0a2.1,2.1,0,0,1,1.46,2.12c0,1.8-1.45,2.62-3.12,2.62h-3.26Zm3.23,3.69a1.07,1.07,0,0,0,1.11-1.16,1,1,0,0,0-1.14-1.12h-1.56v2.28Zm.16,3.93a1.31,1.31,0,1,0,0-2.61h-1.75v2.61Zm5.15-7.62h5.4v1.41H156v2.37h3v1.41h-3v2.43h4v1.41h-5.6Zm9.55,1.41h-3V97.9h7.57v1.41h-3v7.62h-1.64Zm5.2,6h1.61v1.62h-1.61Z" fill="#fff"/>
        <g>
          <g>
            <path d="M128.46,26.76a8.85,8.85,0,0,0-3.39-1.23c.67-.3,1.15-.5,1.61-.73,3.15-1.59,3.39-5.05.48-7a8.79,8.79,0,0,0-3.9-1.38c-3.45-.5-6.93-.16-10.39-.28-.61,0-.65.26-.65.74q0,8.82,0,17.64c0,.62.15.85.81.84,3.51-.06,7,.1,10.52-.18,2.26-.19,4.4-.74,5.88-2.67A3.79,3.79,0,0,0,128.46,26.76Zm-11.67-9.65c2.26-.12,4.52-.24,6.61.88a3.41,3.41,0,0,1,2.09,3.1,3.25,3.25,0,0,1-2,3,6.52,6.52,0,0,1-1.59.55,21.14,21.14,0,0,1-5.73.11c-.49-.05-.63-.23-.61-.69,0-1,0-2,0-3.05a22.8,22.8,0,0,0,0-2.48C115.46,17.6,115.79,17.17,116.79,17.11Zm8,15.76a6.94,6.94,0,0,1-4.12,1.35,23.71,23.71,0,0,1-4.29-.18c-.7-.09-.86-.37-.83-1,0-1,0-2,0-3.06s0-2.18,0-3.27c0-.54.18-.75.7-.77a18.3,18.3,0,0,1,6.71.57,5.42,5.42,0,0,1,2.12,1.25A3.24,3.24,0,0,1,124.82,32.87Z" fill="#fff"/>
            <path d="M136.64,27.24c1.58,0,3.17,0,4.75,0s3.17,0,4.75,0c.68,0,.84-.21.74-.84a4.38,4.38,0,0,0-1.87-3.1,7.72,7.72,0,0,0-7.75-.56,6.19,6.19,0,0,0-3.9,5.62,6.53,6.53,0,0,0,5.5,7.14,6.68,6.68,0,0,0,7.82-4.22c.09-.28.33-.63,0-.82s-.47.24-.63.46a5,5,0,0,1-6,2.19,5.62,5.62,0,0,1-4.19-5C135.83,27.47,136,27.22,136.64,27.24ZM136,25.81a3.8,3.8,0,0,1,3.69-2.76,3.34,3.34,0,0,1,3.49,2.44c.15.65.13,1.08-.77,1s-1.87,0-2.81,0-2,0-3.05,0C136,26.5,135.9,26.29,136,25.81Z" fill="#fff"/>
            <path d="M158.61,33.42a2.14,2.14,0,0,1-2.22.39,1.62,1.62,0,0,1-.92-1.67c0-2.75,0-5.5,0-8.25,0-.48.16-.66.65-.65.83,0,1.66,0,2.49,0,.3,0,.66-.08.68-.45s-.33-.54-.7-.54c-.82,0-1.65,0-2.48,0-.5,0-.65-.15-.64-.64,0-1,0-2,0-3.05,0-.23.12-.5-.27-.64a1.93,1.93,0,0,0-2.68,1.81,11.84,11.84,0,0,0,0,1.46c.1.82-.13,1.15-1,1.08-.53,0-1.51-.34-1.53.42s1,.54,1.55.53c.77,0,1,.18,1,1-.05,2.79,0,5.58,0,8.36a2.83,2.83,0,0,0,3.16,3A4.49,4.49,0,0,0,159.74,33C159.07,32.67,158.92,33.19,158.61,33.42Z" fill="#fff"/>
          </g>
          <g>
            <path d="M87.2,29.57c.67-.51,1.29-1.07,2-1.5,2.63-1.66,5.42-.69,7.14,2.42,1.44,2.62,1.46,2.64,3.74.82.67-.54,1.25-1.2,2.11-.31s.12,1.61-.53,2.22c-2.95,2.79-5,2.43-6.91-1.16-1.66-3.12-3.22-3.32-5.67-.69-.72.77-1.31,1.66-2,2.49-.48.62-1,1.2-1.89.83a1.76,1.76,0,0,1-1-2.06c.1-1,.61-2,.22-3.21a18.07,18.07,0,0,0-3.88,3.09c-2.79,2.39-3.64,2.49-6.85.72-.78-.42-1.06.28-1.48.56-2.1,1.41-4.27,2.19-6.83,1.34a4,4,0,0,1-2.93-4.32,12.31,12.31,0,0,1,2.14-5.89c.39-.65,1-1,1.69-.54a1.21,1.21,0,0,1,.4,1.78,14.21,14.21,0,0,0-1.8,4.13c-.47,2.12.45,3.19,2.64,2.91a7.24,7.24,0,0,0,4.87-3,16.07,16.07,0,0,0,2.21-3.94c.26-.66.61-1.33,1.47-1a1.39,1.39,0,0,1,.77,1.89c-.33,1.15-.75,2.29-1.09,3.44-.16.56-.52,1.26.09,1.65s1.19-.13,1.65-.47c1-.76,2-1.6,3-2.42.53-.43,1-.92,1.55-1.33C84.68,26,86.17,26.46,87.2,29.57Z" fill="url(#linear-gradient)"/>
            <path d="M106.86,43.72c-12.25-2.46-24.59-4.34-37.1-4.06a20.28,20.28,0,0,1-12.47-3.5c-5.13-3.47-10.71-6.27-15.07-10.8q-8.38-8.7,1.76-15.3A45.7,45.7,0,0,1,60.6,3.77c4-.76,8.07-1.35,12.15-.45,1.36.29,2.75.68,3.18,2.2S75.47,8.09,74.31,9a17.83,17.83,0,0,1-5.25,2.58c-1,.33-1.65,1-1.19,2.07.4.92,1.17.94,2.1.66a18.72,18.72,0,0,0,5.69-2.74c2.07-1.54,3.71-3.36,3.18-6.26S76.15,1.09,73.47.53C68-.6,62.62.24,57.32,1.53c-7,1.69-13.64,4.08-18.81,9.37A9.27,9.27,0,0,0,36,20.67a18.5,18.5,0,0,0,5.88,8.44c4.28,3.76,9.19,6.62,14.07,9.52.53.32,1.31.4,1.47,1.28a99.45,99.45,0,0,0-25.3,4.71,22.57,22.57,0,0,0-7.44,3.78c-3.1,2.59-2.92,5.45.4,7.82a16.65,16.65,0,0,0,5.56,2.47A68.76,68.76,0,0,0,57,59.91c4.25-.54,8.51-1.45,12.12-4.07,2.64-1.91,3.58-4.4,2.73-7.29-.7-2.42-2.56-4-4.55-6.13a192.62,192.62,0,0,1,38.93,4.17c1.23.27,2.44.47,2.74-1S107.92,43.94,106.86,43.72ZM68.72,48.86c1.19,1.82.35,3.48-1.37,4.66-3.61,2.47-7.8,3.18-12,3.69-2.84.34-5.7.79-7.43.57-6.76-.15-12.34-.45-17.69-2.28-1.88-.64-4.53-1.06-4.61-3.36-.07-2,2.43-2.66,4.11-3.41C37.12,45.4,45,44.13,53,43.25c2-.23,4.08-.23,6.1-.49C64,42.12,66.47,45.42,68.72,48.86Z" fill="url(#linear-gradient-2)"/>
          </g>
        </g>
      </g>
    </g>
  </g>
</svg>
