<svg xmlns="http://www.w3.org/2000/svg" xmlns:xlink="http://www.w3.org/1999/xlink" viewBox="0 0 123.8 54.66">
  <defs>
    <linearGradient id="linear-gradient" x1="22.84" y1="26.89" x2="63.68" y2="26.89" gradientUnits="userSpaceOnUse">
      <stop offset="0" stop-color="#cb9920"/>
      <stop offset="0.51" stop-color="#ebcf75"/>
      <stop offset="1" stop-color="#cb9920"/>
    </linearGradient>
    <linearGradient id="linear-gradient-2" x1="22.84" y1="27.33" x2="63.68" y2="27.33" xlink:href="#linear-gradient"/>
  </defs>
  <g id="Layer_2" data-name="Layer 2">
    <g id="Banners">
      <g>
        <g>
          <path d="M95.59,24.13a8,8,0,0,0-3-1.11c.6-.27,1-.45,1.45-.66,2.84-1.43,3.05-4.55.43-6.36a8.09,8.09,0,0,0-3.52-1.24c-3.11-.45-6.24-.15-9.37-.25-.54,0-.58.23-.58.67q0,8,0,15.9c0,.56.13.76.73.75,3.16,0,6.33.09,9.48-.16,2-.16,4-.66,5.3-2.4A3.41,3.41,0,0,0,95.59,24.13Zm-10.52-8.7c2-.11,4.08-.22,6,.79A3.08,3.08,0,0,1,92.91,19a2.93,2.93,0,0,1-1.78,2.73,5.79,5.79,0,0,1-1.43.5,19,19,0,0,1-5.17.1c-.44,0-.57-.2-.55-.63,0-.91,0-1.82,0-2.74a20.71,20.71,0,0,0,0-2.23C83.87,15.87,84.17,15.48,85.07,15.43Zm7.24,14.21a6.29,6.29,0,0,1-3.71,1.22,21.77,21.77,0,0,1-3.87-.17c-.64-.08-.78-.33-.76-.9,0-.92,0-1.84,0-2.76s0-2,0-3c0-.49.17-.68.63-.69a16.24,16.24,0,0,1,6,.51A4.87,4.87,0,0,1,92.57,25,2.92,2.92,0,0,1,92.31,29.64Z" fill="#fff"/>
          <path d="M103,24.56c1.42,0,2.85,0,4.28,0s2.86,0,4.28,0c.61,0,.76-.18.67-.75a4,4,0,0,0-1.69-2.8,7,7,0,0,0-7-.5A5.6,5.6,0,0,0,100,25.6,5.9,5.9,0,0,0,105,32a6,6,0,0,0,7-3.81c.08-.25.3-.57,0-.74s-.43.22-.57.41a4.53,4.53,0,0,1-5.38,2,5.08,5.08,0,0,1-3.78-4.54C102.24,24.77,102.34,24.54,103,24.56Zm-.59-1.29a3.42,3.42,0,0,1,3.33-2.49,3,3,0,0,1,3.14,2.2c.14.59.12,1-.69.9s-1.69,0-2.54,0-1.83,0-2.74,0C102.41,23.89,102.3,23.7,102.38,23.27Z" fill="#fff"/>
          <path d="M122.78,30.13a1.93,1.93,0,0,1-2,.35,1.46,1.46,0,0,1-.84-1.5c0-2.48,0-5,0-7.44,0-.44.14-.6.58-.58.75,0,1.5,0,2.25,0,.27,0,.59-.07.61-.4s-.29-.49-.63-.49c-.74,0-1.49,0-2.24,0-.45,0-.58-.14-.57-.58,0-.91,0-1.83,0-2.75,0-.2.11-.45-.23-.58a1.74,1.74,0,0,0-2.42,1.63,9.83,9.83,0,0,0,0,1.33c.09.73-.12,1-.92,1-.48,0-1.37-.31-1.38.38s.89.48,1.39.47c.7,0,.93.17.91.9,0,2.51,0,5,0,7.54a2.54,2.54,0,0,0,2.85,2.72,4,4,0,0,0,3.67-2.39C123.19,29.46,123.05,29.93,122.78,30.13Z" fill="#fff"/>
        </g>
        <g>
          <path d="M58.39,26.67c.61-.47,1.16-1,1.78-1.36,2.36-1.5,4.89-.63,6.44,2.18,1.3,2.37,1.31,2.38,3.36.74.61-.49,1.13-1.09,1.91-.28s.11,1.45-.48,2c-2.66,2.5-4.5,2.19-6.23-1.06-1.49-2.81-2.9-3-5.11-.62-.65.7-1.18,1.5-1.77,2.25-.43.56-.89,1.08-1.7.75a1.58,1.58,0,0,1-.91-1.86c.09-.93.55-1.82.19-2.89a16.46,16.46,0,0,0-3.5,2.79c-2.51,2.14-3.27,2.24-6.17.64-.7-.38-1,.25-1.33.51-1.9,1.27-3.85,2-6.16,1.2a3.6,3.6,0,0,1-2.65-3.89A11.18,11.18,0,0,1,38,22.47c.36-.59.86-.92,1.53-.49a1.09,1.09,0,0,1,.36,1.61,13,13,0,0,0-1.62,3.72c-.42,1.91.4,2.87,2.38,2.63A6.58,6.58,0,0,0,45,27.2a14.57,14.57,0,0,0,2-3.55c.24-.6.55-1.2,1.33-.91a1.25,1.25,0,0,1,.69,1.7c-.3,1-.67,2.06-1,3.11-.15.5-.47,1.13.08,1.49s1.07-.13,1.49-.43c.94-.68,1.81-1.44,2.71-2.18.47-.39.9-.84,1.39-1.2C56.12,23.46,57.47,23.86,58.39,26.67Z" fill="url(#linear-gradient)"/>
          <path d="M76.11,39.42c-11-2.22-22.16-3.91-33.44-3.66A18.28,18.28,0,0,1,31.43,32.6C26.8,29.48,21.77,27,17.84,22.86Q10.28,15,19.42,9.07a41.4,41.4,0,0,1,15-5.67c3.61-.69,7.27-1.22,11-.41,1.21.27,2.47.62,2.86,2s-.42,2.31-1.46,3.11A16.1,16.1,0,0,1,42,10.42c-.85.3-1.48.89-1.06,1.87s1.05.85,1.89.59A16.62,16.62,0,0,0,48,10.41c1.88-1.38,3.35-3,2.88-5.64S48.43,1,46,.48c-4.93-1-9.78-.26-14.56.9-6.27,1.52-12.29,3.67-17,8.45a8.35,8.35,0,0,0-2.29,8.8,16.6,16.6,0,0,0,5.3,7.61c3.87,3.4,8.29,6,12.69,8.59.48.28,1.18.36,1.32,1.15A89.58,89.58,0,0,0,8.7,40.23,20.33,20.33,0,0,0,2,43.64c-2.8,2.33-2.64,4.92.36,7a14.84,14.84,0,0,0,5,2.22A62.11,62.11,0,0,0,31.12,54c3.83-.49,7.67-1.31,10.93-3.68,2.37-1.72,3.22-4,2.46-6.57-.64-2.18-2.32-3.63-4.11-5.52A173.27,173.27,0,0,1,75.5,42c1.12.24,2.21.42,2.48-.9S77.07,39.61,76.11,39.42ZM41.73,44.05c1.08,1.65.31,3.14-1.24,4.2-3.25,2.23-7,2.87-10.81,3.33a34.54,34.54,0,0,1-6.7.52C16.89,52,11.86,51.69,7,50c-1.69-.57-4.08-1-4.15-3-.06-1.81,2.19-2.4,3.7-3.08,6.66-3,13.77-4.14,21-4.94,1.83-.2,3.68-.2,5.5-.44C37.48,38,39.7,41,41.73,44.05Z" fill="url(#linear-gradient-2)"/>
        </g>
      </g>
    </g>
  </g>
</svg>
